<?xml version="1.0" encoding="utf-8"?>
<!-- Svg Vector Icons : http://www.onlinewebfonts.com/icon -->
<!DOCTYPE svg PUBLIC "-//W3C//DTD SVG 1.1//EN" "http://www.w3.org/Graphics/SVG/1.1/DTD/svg11.dtd">
<svg version="1.1" xmlns="http://www.w3.org/2000/svg" xmlns:xlink="http://www.w3.org/1999/xlink" x="0px" y="0px" viewBox="0 0 1000 1000" enable-background="new 0 0 1000 1000" xml:space="preserve">
<metadata> Svg Vector Icons : http://www.onlinewebfonts.com/icon </metadata>
<g><path d="M908,167.8H92c-45.2,0-82,36.8-82,82.1v500.4c0,45.3,36.8,82,82,82H908c45.4,0,82-36.7,82-82V249.9C990,204.6,953.5,167.8,908,167.8z M886.2,227.5l-323.6,287c-28.2,25.1-49.1,37.7-62.6,37.7c-13.5,0-34.4-12.6-62.6-37.7l-323.6-287H886.2z M72,730.2V281.7l252.1,221.1L72,730.2z M116.2,772.8l253.5-225.2l41.5,36.4c24.1,21.1,53.8,31.9,88.8,31.9c35.2,0,64.7-10.8,88.9-31.9l41.5-36.4l253.5,225.2H116.2z M928.1,730.2L675.9,502.8l252.1-221.1V730.2z"/></g>
</svg>